<svg id="visual" viewBox="0 0 900 600" width="900" height="600" xmlns="http://www.w3.org/2000/svg" xmlns:xlink="http://www.w3.org/1999/xlink" version="1.1"><path d="M0 247L82 247L82 85L164 85L164 85L245 85L245 103L327 103L327 181L409 181L409 91L491 91L491 91L573 91L573 157L655 157L655 175L736 175L736 115L818 115L818 67L900 67L900 205L900 0L900 0L818 0L818 0L736 0L736 0L655 0L655 0L573 0L573 0L491 0L491 0L409 0L409 0L327 0L327 0L245 0L245 0L164 0L164 0L82 0L82 0L0 0Z" fill="#20253a"></path><path d="M0 355L82 355L82 151L164 151L164 157L245 157L245 253L327 253L327 301L409 301L409 211L491 211L491 163L573 163L573 205L655 205L655 265L736 265L736 265L818 265L818 223L900 223L900 373L900 203L900 65L818 65L818 113L736 113L736 173L655 173L655 155L573 155L573 89L491 89L491 89L409 89L409 179L327 179L327 101L245 101L245 83L164 83L164 83L82 83L82 245L0 245Z" fill="#1e2236"></path><path d="M0 433L82 433L82 265L164 265L164 259L245 259L245 325L327 325L327 361L409 361L409 343L491 343L491 229L573 229L573 325L655 325L655 361L736 361L736 343L818 343L818 295L900 295L900 421L900 371L900 221L818 221L818 263L736 263L736 263L655 263L655 203L573 203L573 161L491 161L491 209L409 209L409 299L327 299L327 251L245 251L245 155L164 155L164 149L82 149L82 353L0 353Z" fill="#1c2033"></path><path d="M0 511L82 511L82 355L164 355L164 361L245 361L245 421L327 421L327 397L409 397L409 379L491 379L491 331L573 331L573 397L655 397L655 397L736 397L736 391L818 391L818 391L900 391L900 487L900 419L900 293L818 293L818 341L736 341L736 359L655 359L655 323L573 323L573 227L491 227L491 341L409 341L409 359L327 359L327 323L245 323L245 257L164 257L164 263L82 263L82 431L0 431Z" fill="#1a1e2f"></path><path d="M0 601L82 601L82 601L164 601L164 601L245 601L245 601L327 601L327 601L409 601L409 601L491 601L491 601L573 601L573 601L655 601L655 601L736 601L736 601L818 601L818 601L900 601L900 601L900 485L900 389L818 389L818 389L736 389L736 395L655 395L655 395L573 395L573 329L491 329L491 377L409 377L409 395L327 395L327 419L245 419L245 359L164 359L164 353L82 353L82 509L0 509Z" fill="#181c2c"></path></svg>