<svg id="visual" viewBox="0 0 900 600" width="900" height="600" xmlns="http://www.w3.org/2000/svg" xmlns:xlink="http://www.w3.org/1999/xlink" version="1.1"><path d="M0 73L82 91L164 109L245 103L327 61L409 121L491 103L573 43L655 43L736 55L818 97L900 109L900 0L818 0L736 0L655 0L573 0L491 0L409 0L327 0L245 0L164 0L82 0L0 0Z" fill="#00cc8e"></path><path d="M0 271L82 235L164 313L245 271L327 319L409 313L491 319L573 151L655 133L736 289L818 187L900 235L900 107L818 95L736 53L655 41L573 41L491 101L409 119L327 59L245 101L164 107L82 89L0 71Z" fill="#00b98a"></path><path d="M0 397L82 451L164 379L245 451L327 403L409 463L491 391L573 397L655 367L736 415L818 391L900 379L900 233L818 185L736 287L655 131L573 149L491 317L409 311L327 317L245 269L164 311L82 233L0 269Z" fill="#00a784"></path><path d="M0 433L82 547L164 481L245 517L327 481L409 541L491 439L573 487L655 457L736 469L818 469L900 451L900 377L818 389L736 413L655 365L573 395L491 389L409 461L327 401L245 449L164 377L82 449L0 395Z" fill="#00957c"></path><path d="M0 601L82 601L164 601L245 601L327 601L409 601L491 601L573 601L655 601L736 601L818 601L900 601L900 449L818 467L736 467L655 455L573 485L491 437L409 539L327 479L245 515L164 479L82 545L0 431Z" fill="#038373"></path></svg>