<svg id="visual" viewBox="0 0 900 600" width="900" height="600" xmlns="http://www.w3.org/2000/svg" xmlns:xlink="http://www.w3.org/1999/xlink" version="1.1"><rect x="0" y="0" width="900" height="600" fill="#911a4c"></rect><path d="M0 288L129 200L257 176L386 235L514 179L643 258L771 202L900 239L900 601L771 601L643 601L514 601L386 601L257 601L129 601L0 601Z" fill="#c62368"></path><path d="M0 240L129 291L257 321L386 297L514 200L643 222L771 273L900 204L900 601L771 601L643 601L514 601L386 601L257 601L129 601L0 601Z" fill="#cf3068"></path><path d="M0 252L129 288L257 261L386 319L514 364L643 329L771 340L900 292L900 601L771 601L643 601L514 601L386 601L257 601L129 601L0 601Z" fill="#d73b67"></path><path d="M0 335L129 362L257 390L386 409L514 403L643 406L771 301L900 379L900 601L771 601L643 601L514 601L386 601L257 601L129 601L0 601Z" fill="#df4667"></path><path d="M0 360L129 365L257 374L386 435L514 379L643 372L771 387L900 421L900 601L771 601L643 601L514 601L386 601L257 601L129 601L0 601Z" fill="#e75167"></path><path d="M0 446L129 483L257 486L386 462L514 462L643 436L771 492L900 438L900 601L771 601L643 601L514 601L386 601L257 601L129 601L0 601Z" fill="#ee5c67"></path><path d="M0 501L129 511L257 482L386 464L514 503L643 470L771 507L900 477L900 601L771 601L643 601L514 601L386 601L257 601L129 601L0 601Z" fill="#f46767"></path><path d="M0 521L129 538L257 514L386 567L514 546L643 518L771 551L900 522L900 601L771 601L643 601L514 601L386 601L257 601L129 601L0 601Z" fill="#fa7268"></path></svg>