<svg id="visual" viewBox="0 0 900 600" width="900" height="600" xmlns="http://www.w3.org/2000/svg" xmlns:xlink="http://www.w3.org/1999/xlink" version="1.1"><rect width="900" height="600" fill="#52112c"></rect><g><g transform="translate(833 583)"><path d="M75.2 -47.9C94 -36.5 103.2 -5.4 93.9 15.8C84.5 37.1 56.7 48.6 32.2 56.4C7.6 64.2 -13.6 68.3 -33.5 61.8C-53.3 55.2 -71.7 37.9 -76 17.8C-80.2 -2.3 -70.3 -25.2 -55.3 -35.8C-40.2 -46.3 -20.1 -44.5 4.1 -47.7C28.3 -51 56.5 -59.3 75.2 -47.9Z" stroke="#FA7268" fill="none" stroke-width="20"></path></g><g transform="translate(486 423)"><path d="M62.5 -46.4C80.5 -27.3 94.2 -1.3 90.7 23.5C87.3 48.4 66.7 72.1 45.5 74.8C24.2 77.5 2.3 59.2 -16.8 45.8C-35.9 32.4 -52.2 24 -60.7 7.9C-69.1 -8.3 -69.8 -32.2 -58.4 -49.8C-47 -67.4 -23.5 -78.6 -0.6 -78.1C22.3 -77.6 44.5 -65.4 62.5 -46.4Z" stroke="#FA7268" fill="none" stroke-width="20"></path></g><g transform="translate(402 83)"><path d="M33.2 -16.3C48.1 -7.8 68.8 6.3 69.6 21.1C70.4 35.8 51.2 51.2 32.5 55.7C13.8 60.1 -4.5 53.7 -21 45.1C-37.5 36.5 -52.2 25.9 -52.4 14.9C-52.6 3.8 -38.2 -7.6 -27.1 -15.3C-15.9 -23 -7.9 -27 0.6 -27.5C9.1 -27.9 18.3 -24.9 33.2 -16.3Z" stroke="#FA7268" fill="none" stroke-width="20"></path></g><g transform="translate(115 292)"><path d="M56.9 -52C66 -34 60.2 -10.8 54.9 12.4C49.5 35.7 44.5 58.9 33 62C21.4 65.2 3.2 48.1 -7.8 35.4C-18.7 22.7 -22.5 14.4 -24.1 5.9C-25.7 -2.5 -25.1 -11 -20.7 -27.9C-16.3 -44.8 -8.2 -70.1 7.9 -76.4C23.9 -82.7 47.8 -70 56.9 -52Z" stroke="#FA7268" fill="none" stroke-width="20"></path></g><g transform="translate(706 20)"><path d="M33.7 -29.4C44.7 -13.1 55.3 1 52.5 11.4C49.6 21.8 33.3 28.5 18.9 33.1C4.5 37.7 -8 40 -22.3 36.8C-36.7 33.5 -53 24.7 -57.2 11.5C-61.4 -1.6 -53.5 -19 -42 -35.4C-30.5 -51.9 -15.2 -67.3 -1.9 -65.7C11.4 -64.2 22.7 -45.7 33.7 -29.4Z" stroke="#FA7268" fill="none" stroke-width="20"></path></g><g transform="translate(728 290)"><path d="M25.7 -23.1C30.4 -14.5 29.3 -4 29.2 10.7C29 25.3 29.7 44.2 20.5 52.4C11.4 60.5 -7.6 57.9 -17.1 48.4C-26.7 38.9 -26.7 22.5 -26 10.3C-25.4 -1.9 -23.9 -9.9 -19.5 -18.4C-15 -27 -7.5 -36 1.5 -37.1C10.5 -38.3 20.9 -31.7 25.7 -23.1Z" stroke="#FA7268" fill="none" stroke-width="20"></path></g></g></svg>