<svg id="visual" viewBox="0 0 900 600" width="900" height="600" xmlns="http://www.w3.org/2000/svg" xmlns:xlink="http://www.w3.org/1999/xlink" version="1.1"><rect x="0" y="0" width="900" height="600" fill="#fd8a80"></rect><path d="M0 240L11.5 224.8C23 209.7 46 179.3 69 184.2C92 189 115 229 138.2 243.7C161.3 258.3 184.7 247.7 207.8 238.3C231 229 254 221 277 228.8C300 236.7 323 260.3 346 256.8C369 253.3 392 222.7 415.2 194.3C438.3 166 461.7 140 484.8 145.2C508 150.3 531 186.7 554 204.3C577 222 600 221 623 202.2C646 183.3 669 146.7 692.2 127.7C715.3 108.7 738.7 107.3 761.8 113.2C785 119 808 132 831 142.2C854 152.3 877 159.7 888.5 163.3L900 167L900 601L888.5 601C877 601 854 601 831 601C808 601 785 601 761.8 601C738.7 601 715.3 601 692.2 601C669 601 646 601 623 601C600 601 577 601 554 601C531 601 508 601 484.8 601C461.7 601 438.3 601 415.2 601C392 601 369 601 346 601C323 601 300 601 277 601C254 601 231 601 207.8 601C184.7 601 161.3 601 138.2 601C115 601 92 601 69 601C46 601 23 601 11.5 601L0 601Z" fill="#fa7268"></path><path d="M0 231L11.5 240.8C23 250.7 46 270.3 69 269.2C92 268 115 246 138.2 244.3C161.3 242.7 184.7 261.3 207.8 264.7C231 268 254 256 277 240.8C300 225.7 323 207.3 346 209.2C369 211 392 233 415.2 252.5C438.3 272 461.7 289 484.8 306.5C508 324 531 342 554 348.5C577 355 600 350 623 347.7C646 345.3 669 345.7 692.2 326.8C715.3 308 738.7 270 761.8 250.2C785 230.3 808 228.7 831 241.8C854 255 877 283 888.5 297L900 311L900 601L888.5 601C877 601 854 601 831 601C808 601 785 601 761.8 601C738.7 601 715.3 601 692.2 601C669 601 646 601 623 601C600 601 577 601 554 601C531 601 508 601 484.8 601C461.7 601 438.3 601 415.2 601C392 601 369 601 346 601C323 601 300 601 277 601C254 601 231 601 207.8 601C184.7 601 161.3 601 138.2 601C115 601 92 601 69 601C46 601 23 601 11.5 601L0 601Z" fill="#ef5f67"></path><path d="M0 351L11.5 355.8C23 360.7 46 370.3 69 360.2C92 350 115 320 138.2 313.2C161.3 306.3 184.7 322.7 207.8 320.5C231 318.3 254 297.7 277 298C300 298.3 323 319.7 346 320C369 320.3 392 299.7 415.2 301.5C438.3 303.3 461.7 327.7 484.8 330C508 332.3 531 312.7 554 314C577 315.3 600 337.7 623 357.7C646 377.7 669 395.3 692.2 402.7C715.3 410 738.7 407 761.8 401.3C785 395.7 808 387.3 831 374.5C854 361.7 877 344.3 888.5 335.7L900 327L900 601L888.5 601C877 601 854 601 831 601C808 601 785 601 761.8 601C738.7 601 715.3 601 692.2 601C669 601 646 601 623 601C600 601 577 601 554 601C531 601 508 601 484.8 601C461.7 601 438.3 601 415.2 601C392 601 369 601 346 601C323 601 300 601 277 601C254 601 231 601 207.8 601C184.7 601 161.3 601 138.2 601C115 601 92 601 69 601C46 601 23 601 11.5 601L0 601Z" fill="#e34c67"></path><path d="M0 486L11.5 470.7C23 455.3 46 424.7 69 416.3C92 408 115 422 138.2 423.8C161.3 425.7 184.7 415.3 207.8 407.8C231 400.3 254 395.7 277 402.7C300 409.7 323 428.3 346 425.8C369 423.3 392 399.7 415.2 394.3C438.3 389 461.7 402 484.8 410.7C508 419.3 531 423.7 554 435.5C577 447.3 600 466.7 623 462C646 457.3 669 428.7 692.2 420C715.3 411.3 738.7 422.7 761.8 434.8C785 447 808 460 831 467.2C854 474.3 877 475.7 888.5 476.3L900 477L900 601L888.5 601C877 601 854 601 831 601C808 601 785 601 761.8 601C738.7 601 715.3 601 692.2 601C669 601 646 601 623 601C600 601 577 601 554 601C531 601 508 601 484.8 601C461.7 601 438.3 601 415.2 601C392 601 369 601 346 601C323 601 300 601 277 601C254 601 231 601 207.8 601C184.7 601 161.3 601 138.2 601C115 601 92 601 69 601C46 601 23 601 11.5 601L0 601Z" fill="#d53867"></path><path d="M0 519L11.5 518.3C23 517.7 46 516.3 69 509.3C92 502.3 115 489.7 138.2 483C161.3 476.3 184.7 475.7 207.8 486.2C231 496.7 254 518.3 277 523.2C300 528 323 516 346 517C369 518 392 532 415.2 536C438.3 540 461.7 534 484.8 521.5C508 509 531 490 554 492.8C577 495.7 600 520.3 623 516.8C646 513.3 669 481.7 692.2 481.5C715.3 481.3 738.7 512.7 761.8 516.5C785 520.3 808 496.7 831 490.7C854 484.7 877 496.3 888.5 502.2L900 508L900 601L888.5 601C877 601 854 601 831 601C808 601 785 601 761.8 601C738.7 601 715.3 601 692.2 601C669 601 646 601 623 601C600 601 577 601 554 601C531 601 508 601 484.8 601C461.7 601 438.3 601 415.2 601C392 601 369 601 346 601C323 601 300 601 277 601C254 601 231 601 207.8 601C184.7 601 161.3 601 138.2 601C115 601 92 601 69 601C46 601 23 601 11.5 601L0 601Z" fill="#c62368"></path></svg>