<svg id="visual" viewBox="0 0 900 600" width="900" height="600" xmlns="http://www.w3.org/2000/svg" xmlns:xlink="http://www.w3.org/1999/xlink" version="1.1"><rect x="0" y="0" width="900" height="600" fill="#059a89"></rect><path d="M0 301L90 301L90 238L180 238L180 252L270 252L270 174L360 174L360 264L450 264L450 314L540 314L540 157L630 157L630 187L720 187L720 281L810 281L810 176L900 176L900 280L900 601L900 601L810 601L810 601L720 601L720 601L630 601L630 601L540 601L540 601L450 601L450 601L360 601L360 601L270 601L270 601L180 601L180 601L90 601L90 601L0 601Z" fill="#038373"></path><path d="M0 414L90 414L90 285L180 285L180 372L270 372L270 284L360 284L360 304L450 304L450 392L540 392L540 298L630 298L630 392L720 392L720 427L810 427L810 350L900 350L900 302L900 601L900 601L810 601L810 601L720 601L720 601L630 601L630 601L540 601L540 601L450 601L450 601L360 601L360 601L270 601L270 601L180 601L180 601L90 601L90 601L0 601Z" fill="#00a784"></path><path d="M0 430L90 430L90 397L180 397L180 467L270 467L270 495L360 495L360 493L450 493L450 506L540 506L540 513L630 513L630 480L720 480L720 527L810 527L810 452L900 452L900 504L900 601L900 601L810 601L810 601L720 601L720 601L630 601L630 601L540 601L540 601L450 601L450 601L360 601L360 601L270 601L270 601L180 601L180 601L90 601L90 601L0 601Z" fill="#00cc8e"></path></svg>