<svg id="visual" viewBox="0 0 900 600" width="900" height="600" xmlns="http://www.w3.org/2000/svg" xmlns:xlink="http://www.w3.org/1999/xlink" version="1.1"><rect x="0" y="0" width="900" height="600" fill="#fd8a80"></rect><path d="M0 286L129 219L257 213L386 308L514 266L643 296L771 323L900 219L900 601L771 601L643 601L514 601L386 601L257 601L129 601L0 601Z" fill="#c62368"></path><path d="M0 354L129 347L257 407L386 359L514 375L643 397L771 336L900 380L900 601L771 601L643 601L514 601L386 601L257 601L129 601L0 601Z" fill="#d53867"></path><path d="M0 435L129 437L257 448L386 408L514 363L643 370L771 455L900 453L900 601L771 601L643 601L514 601L386 601L257 601L129 601L0 601Z" fill="#e34c67"></path><path d="M0 451L129 469L257 462L386 494L514 464L643 476L771 444L900 473L900 601L771 601L643 601L514 601L386 601L257 601L129 601L0 601Z" fill="#ef5f67"></path><path d="M0 508L129 492L257 521L386 480L514 484L643 549L771 548L900 540L900 601L771 601L643 601L514 601L386 601L257 601L129 601L0 601Z" fill="#fa7268"></path></svg>